<svg width="24" height="24" viewBox="0 0 24 24" fill="none" xmlns="http://www.w3.org/2000/svg">
<path d="M16.75 11C16.75 11.1989 16.671 11.3897 16.5303 11.5303C16.3897 11.671 16.1989 11.75 16 11.75H8C7.80109 11.75 7.61032 11.671 7.46967 11.5303C7.32902 11.3897 7.25 11.1989 7.25 11C7.25 10.8011 7.32902 10.6103 7.46967 10.4697C7.61032 10.329 7.80109 10.25 8 10.25H16C16.1989 10.25 16.3897 10.329 16.5303 10.4697C16.671 10.6103 16.75 10.8011 16.75 11Z" fill="black"/>
<path fill-rule="evenodd" clip-rule="evenodd" d="M4.38597 8.14699L5.57397 4.89899C5.72103 4.49726 5.97461 4.1431 6.30755 3.87446C6.64049 3.60582 7.04023 3.43282 7.46397 3.37399C10.4735 2.95521 13.5265 2.95521 16.536 3.37399C17.4 3.49399 18.126 4.08099 18.426 4.89899L19.615 8.14699C19.837 8.49399 19.99 8.88999 20.055 9.31699L20.156 9.99599C20.556 12.6545 20.5189 15.3605 20.046 18.007C19.9438 18.578 19.6581 19.1002 19.2321 19.494C18.8061 19.8878 18.2633 20.1318 17.686 20.189L16.456 20.311C13.4926 20.6051 10.5074 20.6051 7.54397 20.311L6.31397 20.189C5.73667 20.1318 5.19379 19.8878 4.76783 19.494C4.34187 19.1002 4.05611 18.578 3.95397 18.007C3.48114 15.3605 3.44398 12.6545 3.84397 9.99599L3.94597 9.31799C4.00843 8.90099 4.15838 8.50193 4.38597 8.14699ZM7.66997 4.85999C10.543 4.45999 13.457 4.45999 16.33 4.85999C16.484 4.88152 16.6294 4.94454 16.7504 5.0423C16.8714 5.14006 16.9635 5.26889 17.017 5.41498L17.523 6.79798C17.4774 6.79128 17.4318 6.78562 17.386 6.78099L16.408 6.68398C13.4765 6.39303 10.5234 6.39303 7.59197 6.68398L6.61397 6.78099C6.56813 6.78511 6.52243 6.79078 6.47697 6.79798L6.98297 5.41498C7.03641 5.26889 7.12857 5.14006 7.24958 5.0423C7.37059 4.94454 7.5159 4.88152 7.66997 4.85999ZM5.68597 8.89998L5.70397 8.90698L5.72697 8.84399C5.97297 8.52799 6.34197 8.31398 6.76197 8.27298L7.73997 8.17598C10.573 7.8948 13.4269 7.8948 16.26 8.17598L17.238 8.27298C17.658 8.31398 18.027 8.52799 18.273 8.84299L18.296 8.90698L18.314 8.89998C18.4482 9.09046 18.5362 9.30959 18.571 9.53999L18.673 10.218C19.048 12.715 19.013 15.256 18.569 17.742C18.5245 17.9914 18.3999 18.2196 18.214 18.3917C18.0281 18.5639 17.7911 18.6707 17.539 18.696L16.308 18.818C13.443 19.102 10.558 19.102 7.69197 18.818L6.46197 18.696C6.20967 18.671 5.97244 18.5642 5.78635 18.392C5.60026 18.2198 5.47547 17.9916 5.43097 17.742C4.98667 15.2564 4.95154 12.7149 5.32697 10.218L5.42897 9.53999C5.46377 9.30959 5.55176 9.09046 5.68597 8.89998Z" fill="black"/>
</svg>
