<svg width="24" height="24" viewBox="0 0 24 24" fill="none" xmlns="http://www.w3.org/2000/svg">
<path fill-rule="evenodd" clip-rule="evenodd" d="M5.59401 4.98999L4.53701 8.37799C4.36132 8.67884 4.24457 9.01042 4.19301 9.35499L4.09101 10.033C3.69545 12.6647 3.7326 15.3433 4.20101 17.963C4.29354 18.4802 4.55228 18.9531 4.93796 19.3099C5.32364 19.6667 5.81519 19.8879 6.33801 19.94L7.56801 20.063C10.516 20.355 13.484 20.355 16.431 20.063L17.661 19.941C18.1842 19.8891 18.676 19.6678 19.0619 19.3108C19.4478 18.9537 19.7066 18.4805 19.799 17.963C20.268 15.343 20.305 12.665 19.909 10.033L19.807 9.35499C19.7535 8.9965 19.6295 8.65219 19.442 8.34199L18.405 4.99499C18.2735 4.57001 18.0236 4.19129 17.6846 3.90316C17.3457 3.61502 16.9316 3.42939 16.491 3.36799C13.511 2.95339 10.488 2.95339 7.50801 3.36799C7.06804 3.42911 6.65451 3.61404 6.31562 3.90122C5.97674 4.1884 5.72648 4.566 5.59401 4.98999ZM16.284 4.85299C13.441 4.45743 10.557 4.45743 7.71401 4.85299C7.55578 4.87513 7.4071 4.94178 7.28529 5.04517C7.16348 5.14857 7.07356 5.28445 7.02601 5.43699L6.52501 7.04299C6.56201 7.03799 6.60001 7.03299 6.63801 7.02999L7.61601 6.93299C10.532 6.64299 13.468 6.64299 16.384 6.93299L17.362 7.02999C17.398 7.03299 17.433 7.03799 17.469 7.04199L16.972 5.43799C16.9248 5.28514 16.8351 5.14892 16.7132 5.04531C16.5913 4.94169 16.4425 4.87497 16.284 4.85299ZM16 11.75C16.1989 11.75 16.3897 11.671 16.5303 11.5303C16.671 11.3897 16.75 11.1989 16.75 11C16.75 10.8011 16.671 10.6103 16.5303 10.4697C16.3897 10.329 16.1989 10.25 16 10.25H8.00001C7.8011 10.25 7.61034 10.329 7.46968 10.4697C7.32903 10.6103 7.25001 10.8011 7.25001 11C7.25001 11.1989 7.32903 11.3897 7.46968 11.5303C7.61034 11.671 7.8011 11.75 8.00001 11.75H16Z" fill="#F97316"/>
</svg>
