<svg width="16" height="16" viewBox="0 0 16 16" fill="none" xmlns="http://www.w3.org/2000/svg">
<path d="M8.56771 15.1872C8.43454 15.2822 8.27501 15.3333 8.1114 15.3333C7.94779 15.3333 7.78826 15.2822 7.65509 15.1872C3.7202 12.3825 -0.455877 6.6134 3.76583 2.44466C4.92443 1.30397 6.48551 0.665251 8.1114 0.666667C9.74109 0.666667 11.3048 1.30632 12.457 2.44384C16.6787 6.61259 12.5026 12.3809 8.56771 15.1872Z" stroke="#F97316" strokeLinecap="round" strokeLinejoin="round"/>
<path d="M8.11162 8.00026C8.54384 8.00026 8.95836 7.82857 9.26399 7.52294C9.56961 7.21731 9.74131 6.8028 9.74131 6.37058C9.74131 5.93835 9.56961 5.52384 9.26399 5.21821C8.95836 4.91258 8.54384 4.74089 8.11162 4.74089C7.6794 4.74089 7.26488 4.91258 6.95926 5.21821C6.65363 5.52384 6.48193 5.93835 6.48193 6.37058C6.48193 6.8028 6.65363 7.21731 6.95926 7.52294C7.26488 7.82857 7.6794 8.00026 8.11162 8.00026Z" stroke="#F97316" strokeLinecap="round" strokeLinejoin="round"/>
</svg>
