<svg width="16" height="16" viewBox="0 0 16 16" fill="none" xmlns="http://www.w3.org/2000/svg">
<mask id="path-1-inside-1_80_58" fill="white">
<path d="M7.34941 5.04667L7.20075 5.65333H6.48675L6.41875 5.658C6.29905 5.67443 6.18934 5.73365 6.10993 5.82471C6.03051 5.91577 5.98675 6.03251 5.98675 6.15333L5.99142 6.22133C6.00785 6.34103 6.06707 6.45074 6.15813 6.53015C6.24919 6.60957 6.36592 6.65333 6.48675 6.65333H6.95541L6.69675 7.71067L6.16608 7.71133L6.09808 7.716C5.97838 7.73243 5.86868 7.79165 5.78926 7.88271C5.70984 7.97377 5.66609 8.09051 5.66608 8.21133L5.67075 8.27933C5.68718 8.39903 5.7464 8.50874 5.83746 8.58815C5.92852 8.66757 6.04526 8.71133 6.16608 8.71133H6.45208L6.37008 9.04867L6.35808 9.11533C6.34544 9.23564 6.37684 9.35646 6.44647 9.45538C6.51609 9.55431 6.61923 9.62464 6.73675 9.65333L6.80341 9.66533C6.92373 9.67798 7.04454 9.64658 7.14347 9.57695C7.24239 9.50732 7.31272 9.40419 7.34141 9.28667L7.48141 8.71067H8.50741L8.42875 9.056L8.41808 9.12267C8.40714 9.24321 8.4403 9.36364 8.5114 9.4616C8.58251 9.55956 8.68674 9.62839 8.80475 9.65533L8.87142 9.666C8.99196 9.67694 9.11239 9.64379 9.21035 9.57268C9.3083 9.50157 9.37714 9.39734 9.40408 9.27933L9.53342 8.71067L10.1601 8.71133L10.2281 8.70667C10.3479 8.69038 10.4578 8.63122 10.5373 8.54015C10.6169 8.44908 10.6607 8.33226 10.6607 8.21133L10.6561 8.14333C10.6396 8.02363 10.5804 7.91393 10.4894 7.83451C10.3983 7.75509 10.2816 7.71134 10.1607 7.71133H9.76275L10.0047 6.65333H10.4847L10.5527 6.64867C10.6725 6.63223 10.7822 6.57301 10.8616 6.48195C10.941 6.39089 10.9847 6.27416 10.9847 6.15333L10.9801 6.086C10.9638 5.96617 10.9046 5.85631 10.8136 5.77676C10.7225 5.69721 10.6057 5.65336 10.4847 5.65333H10.2341L10.3207 5.27733L10.3314 5.21067C10.3422 5.09022 10.309 4.96996 10.2379 4.87215C10.1668 4.77433 10.0626 4.70559 9.94475 4.67867L9.87808 4.668C9.75764 4.65722 9.63738 4.69046 9.53956 4.76155C9.44175 4.83265 9.37301 4.93678 9.34608 5.05467L9.20808 5.65333H8.22941L8.32008 5.28467L8.33208 5.218C8.34593 5.09157 8.31109 4.96462 8.23463 4.86298C8.15818 4.76134 8.04587 4.69266 7.92056 4.67091C7.79525 4.64916 7.66636 4.67598 7.56013 4.74591C7.4539 4.81585 7.37831 4.92363 7.34875 5.04733M7.98475 6.654H8.97808L8.73675 7.71133H7.72675L7.98475 6.654ZM4.33341 1.33333C3.89139 1.33333 3.46746 1.50893 3.1549 1.82149C2.84234 2.13405 2.66675 2.55797 2.66675 3V13C2.66675 13.442 2.84234 13.8659 3.1549 14.1785C3.46746 14.4911 3.89139 14.6667 4.33341 14.6667H13.1667C13.2994 14.6667 13.4265 14.614 13.5203 14.5202C13.6141 14.4265 13.6667 14.2993 13.6667 14.1667C13.6667 14.0341 13.6141 13.9069 13.5203 13.8131C13.4265 13.7193 13.2994 13.6667 13.1667 13.6667H4.33341C4.1566 13.6667 3.98703 13.5964 3.86201 13.4714C3.73699 13.3464 3.66675 13.1768 3.66675 13H13.1667C13.2994 13 13.4265 12.9473 13.5203 12.8536C13.6141 12.7598 13.6667 12.6326 13.6667 12.5V3C13.6667 2.78113 13.6236 2.5644 13.5399 2.36219C13.4561 2.15998 13.3334 1.97625 13.1786 1.82149C13.0238 1.66672 12.8401 1.54396 12.6379 1.4602C12.4357 1.37644 12.219 1.33333 12.0001 1.33333H4.33341ZM12.6667 12H3.66675V3C3.66675 2.82319 3.73699 2.65362 3.86201 2.52859C3.98703 2.40357 4.1566 2.33333 4.33341 2.33333H12.0001C12.1769 2.33333 12.3465 2.40357 12.4715 2.52859C12.5965 2.65362 12.6667 2.82319 12.6667 3V12Z"/>
</mask>
<path d="M7.20075 5.65333V6.65333H7.98528L8.17201 5.89135L7.20075 5.65333ZM6.48675 5.65333V4.65333H6.45247L6.41827 4.65568L6.48675 5.65333ZM6.41875 5.658L6.35027 4.66035L6.31639 4.66267L6.28275 4.66729L6.41875 5.658ZM5.98675 6.15333L4.98675 6.15329L4.98675 6.18759L4.9891 6.22181L5.98675 6.15333ZM5.99142 6.22133L4.99376 6.28981L4.99609 6.32369L5.00071 6.35733L5.99142 6.22133ZM6.48675 6.65333L6.48671 7.65333H6.48675V6.65333ZM6.95541 6.65333L7.92677 6.89096L8.22954 5.65333H6.95541V6.65333ZM6.69675 7.71067L6.69801 8.71066L7.48184 8.70968L7.6681 7.9483L6.69675 7.71067ZM6.16608 7.71133L6.16482 6.71133L6.13118 6.71138L6.09761 6.71368L6.16608 7.71133ZM6.09808 7.716L6.02962 6.71835L5.99573 6.72067L5.96208 6.72529L6.09808 7.716ZM5.66608 8.21133L4.66608 8.21129L4.66608 8.24558L4.66843 8.2798L5.66608 8.21133ZM5.67075 8.27933L4.67309 8.3478L4.67542 8.38168L4.68004 8.41533L5.67075 8.27933ZM6.16608 8.71133L6.16604 9.71133H6.16608V8.71133ZM6.45208 8.71133L7.42379 8.94754L7.72429 7.71133H6.45208V8.71133ZM6.37008 9.04867L5.39838 8.81246L5.39125 8.8418L5.3859 8.87151L6.37008 9.04867ZM6.35808 9.11533L5.3739 8.93817L5.3674 8.9743L5.36356 9.0108L6.35808 9.11533ZM6.73675 9.65333L6.49956 10.6248L6.52938 10.6321L6.55959 10.6375L6.73675 9.65333ZM6.80341 9.66533L6.62626 10.6495L6.66238 10.656L6.69888 10.6599L6.80341 9.66533ZM7.34141 9.28667L8.31288 9.52385L8.31312 9.52285L7.34141 9.28667ZM7.48141 8.71067V7.71067H6.69536L6.50971 8.47449L7.48141 8.71067ZM8.50741 8.71067L9.48244 8.93278L9.76083 7.71067H8.50741V8.71067ZM8.42875 9.056L7.45373 8.83389L7.44647 8.86575L7.44131 8.89801L8.42875 9.056ZM8.41808 9.12267L7.43064 8.96468L7.42526 8.99832L7.42218 9.03225L8.41808 9.12267ZM8.80475 9.65533L8.58218 10.6302L8.61426 10.6376L8.64676 10.6428L8.80475 9.65533ZM8.87142 9.666L8.71343 10.6534L8.74707 10.6588L8.781 10.6619L8.87142 9.666ZM9.40408 9.27933L10.379 9.5019L10.3792 9.5011L9.40408 9.27933ZM9.53342 8.71067L9.53448 7.71067L8.7355 7.70982L8.55832 8.4889L9.53342 8.71067ZM10.1601 8.71133L10.159 9.71133L10.1938 9.71137L10.2285 9.70899L10.1601 8.71133ZM10.2281 8.70667L10.2965 9.70432L10.3298 9.70204L10.3627 9.69756L10.2281 8.70667ZM10.6607 8.21133L11.6607 8.21156L11.6608 8.17717L11.6584 8.14287L10.6607 8.21133ZM10.6561 8.14333L11.6537 8.07487L11.6514 8.04098L11.6468 8.00733L10.6561 8.14333ZM10.1607 7.71133L10.1608 6.71133H10.1607V7.71133ZM9.76275 7.71133L8.78792 7.48836L8.50819 8.71133H9.76275V7.71133ZM10.0047 6.65333V5.65333H9.20766L9.02992 6.43036L10.0047 6.65333ZM10.4847 6.65333V7.65333H10.519L10.5532 7.65099L10.4847 6.65333ZM10.5527 6.64867L10.6212 7.64632L10.6551 7.64399L10.6887 7.63937L10.5527 6.64867ZM10.9847 6.15333L11.9847 6.15337L11.9847 6.11874L11.9824 6.08419L10.9847 6.15333ZM10.9801 6.086L11.9777 6.01686L11.9754 5.98398L11.971 5.95133L10.9801 6.086ZM10.4847 5.65333L10.485 4.65333H10.4847V5.65333ZM10.2341 5.65333L9.25963 5.42872L8.97736 6.65333H10.2341V5.65333ZM10.3207 5.27733L11.2952 5.50194L11.3028 5.46885L11.3082 5.43532L10.3207 5.27733ZM10.3314 5.21067L11.3189 5.36865L11.3243 5.33436L11.3274 5.29978L10.3314 5.21067ZM9.94475 4.67867L10.1674 3.70378L10.1353 3.69643L10.1027 3.69123L9.94475 4.67867ZM9.87808 4.668L10.0361 3.68056L10.0018 3.67507L9.96719 3.67198L9.87808 4.668ZM9.34608 5.05467L10.3205 5.27929L10.321 5.27735L9.34608 5.05467ZM9.20808 5.65333V6.65333H10.0038L10.1825 5.87795L9.20808 5.65333ZM8.22941 5.65333L7.25835 5.41452L6.95369 6.65333H8.22941V5.65333ZM8.32008 5.28467L9.29115 5.52348L9.29868 5.49286L9.30426 5.46182L8.32008 5.28467ZM8.33208 5.218L9.31626 5.39516L9.32238 5.3612L9.32613 5.32691L8.33208 5.218ZM7.98475 6.654V5.654H7.19942L7.01325 6.41694L7.98475 6.654ZM8.97808 6.654L9.95301 6.87652L10.232 5.654H8.97808V6.654ZM8.73675 7.71133V8.71133H9.53422L9.71168 7.93386L8.73675 7.71133ZM7.72675 7.71133L6.75525 7.47428L6.4534 8.71133H7.72675V7.71133ZM2.66675 3H1.66675H2.66675ZM2.66675 13L1.66675 13L2.66675 13ZM3.66675 13V12H2.66675V13H3.66675ZM13.6667 3H12.6667H13.6667ZM12.6667 12V13H13.6667V12H12.6667ZM3.66675 12H2.66675V13H3.66675V12ZM4.33341 2.33333L4.33341 1.33333L4.33341 2.33333ZM12.0001 2.33333V1.33333V2.33333ZM6.37815 4.80865L6.22949 5.41532L8.17201 5.89135L8.32068 5.28468L6.37815 4.80865ZM7.20075 4.65333H6.48675V6.65333H7.20075V4.65333ZM6.41827 4.65568L6.35027 4.66035L6.48722 6.65565L6.55522 6.65098L6.41827 4.65568ZM6.28275 4.66729C5.92364 4.71659 5.59453 4.89425 5.35628 5.16743L6.86357 6.48199C6.78415 6.57306 6.67445 6.63228 6.55475 6.64871L6.28275 4.66729ZM5.35628 5.16743C5.11804 5.4406 4.98676 5.79081 4.98675 6.15329L6.98675 6.15337C6.98674 6.2742 6.94298 6.39094 6.86357 6.48199L5.35628 5.16743ZM4.9891 6.22181L4.99376 6.28981L6.98907 6.15286L6.9844 6.08486L4.9891 6.22181ZM5.00071 6.35733C5.05 6.71644 5.22767 7.04555 5.50084 7.2838L6.81541 5.77651C6.90647 5.85593 6.96569 5.96563 6.98212 6.08533L5.00071 6.35733ZM5.50084 7.2838C5.77402 7.52205 6.12423 7.65332 6.48671 7.65333L6.48679 5.65333C6.60761 5.65334 6.72435 5.69709 6.81541 5.77651L5.50084 7.2838ZM6.48675 7.65333H6.95541V5.65333H6.48675V7.65333ZM5.98406 6.4157L5.72539 7.47303L7.6681 7.9483L7.92677 6.89096L5.98406 6.4157ZM6.69549 6.71067L6.16482 6.71133L6.16734 8.71133L6.69801 8.71066L6.69549 6.71067ZM6.09761 6.71368L6.02962 6.71835L6.16655 8.71365L6.23455 8.70899L6.09761 6.71368ZM5.96208 6.72529C5.60298 6.77459 5.27387 6.95225 5.03562 7.22543L6.5429 8.53999C6.46349 8.63106 6.35378 8.69028 6.23408 8.70671L5.96208 6.72529ZM5.03562 7.22543C4.79737 7.4986 4.6661 7.84881 4.66608 8.21129L6.66608 8.21137C6.66608 8.3322 6.62232 8.44894 6.5429 8.53999L5.03562 7.22543ZM4.66843 8.2798L4.67309 8.3478L6.6684 8.21087L6.66373 8.14287L4.66843 8.2798ZM4.68004 8.41533C4.72934 8.77444 4.907 9.10355 5.18018 9.3418L6.49474 7.83451C6.5858 7.91393 6.64502 8.02363 6.66146 8.14333L4.68004 8.41533ZM5.18018 9.3418C5.45335 9.58004 5.80356 9.71132 6.16604 9.71133L6.16612 7.71133C6.28695 7.71134 6.40369 7.7551 6.49474 7.83451L5.18018 9.3418ZM6.16608 9.71133H6.45208V7.71133H6.16608V9.71133ZM5.48038 8.47513L5.39838 8.81246L7.34178 9.28487L7.42379 8.94754L5.48038 8.47513ZM5.3859 8.87151L5.3739 8.93817L7.34226 9.29249L7.35426 9.22582L5.3859 8.87151ZM5.36356 9.0108C5.32562 9.37173 5.41983 9.73418 5.62871 10.031L7.26422 8.87982C7.33385 8.97874 7.36525 9.09956 7.3526 9.21987L5.36356 9.0108ZM5.62871 10.031C5.8376 10.3277 6.147 10.5387 6.49956 10.6248L6.97394 8.68187C7.09146 8.71056 7.19459 8.78089 7.26422 8.87982L5.62871 10.031ZM6.55959 10.6375L6.62626 10.6495L6.98057 8.68115L6.91391 8.66915L6.55959 10.6375ZM6.69888 10.6599C7.05981 10.6978 7.42226 10.6036 7.71904 10.3947L6.5679 8.75919C6.66682 8.68957 6.78764 8.65817 6.90795 8.67081L6.69888 10.6599ZM7.71904 10.3947C8.01581 10.1858 8.2268 9.87642 8.31288 9.52385L6.36995 9.04948C6.39864 8.93195 6.46897 8.82882 6.5679 8.75919L7.71904 10.3947ZM8.31312 9.52285L8.45312 8.94684L6.50971 8.47449L6.36971 9.05049L8.31312 9.52285ZM7.48141 9.71067H8.50741V7.71067H7.48141V9.71067ZM7.53239 8.48856L7.45373 8.83389L9.40377 9.27811L9.48244 8.93278L7.53239 8.48856ZM7.44131 8.89801L7.43064 8.96468L9.40552 9.28065L9.41619 9.21399L7.44131 8.89801ZM7.42218 9.03225C7.38934 9.3939 7.48882 9.75518 7.70214 10.049L9.32066 8.87415C9.39177 8.97211 9.42493 9.09253 9.41399 9.21308L7.42218 9.03225ZM7.70214 10.049C7.91546 10.3429 8.22815 10.5494 8.58218 10.6302L9.02732 8.68042C9.14533 8.70736 9.24956 8.77619 9.32066 8.87415L7.70214 10.049ZM8.64676 10.6428L8.71343 10.6534L9.0294 8.67856L8.96274 8.66789L8.64676 10.6428ZM8.781 10.6619C9.14264 10.6947 9.50392 10.5953 9.7978 10.3819L8.6229 8.76342C8.72086 8.69231 8.84129 8.65915 8.96183 8.67009L8.781 10.6619ZM9.7978 10.3819C10.0917 10.1686 10.2982 9.85593 10.379 9.5019L8.42916 9.05676C8.45611 8.93875 8.52494 8.83453 8.6229 8.76342L9.7978 10.3819ZM10.3792 9.5011L10.5085 8.93244L8.55832 8.4889L8.42898 9.05756L10.3792 9.5011ZM9.53235 9.71067L10.159 9.71133L10.1611 7.71133L9.53448 7.71067L9.53235 9.71067ZM10.2285 9.70899L10.2965 9.70432L10.1596 7.70901L10.0916 7.71368L10.2285 9.70899ZM10.3627 9.69756C10.7222 9.6487 11.0518 9.47123 11.2905 9.19801L9.78418 7.88229C9.86373 7.79122 9.97359 7.73206 10.0934 7.71577L10.3627 9.69756ZM11.2905 9.19801C11.5291 8.92479 11.6607 8.57434 11.6607 8.21156L9.66075 8.21111C9.66078 8.09018 9.70463 7.97336 9.78418 7.88229L11.2905 9.19801ZM11.6584 8.14287L11.6537 8.07487L9.65843 8.2118L9.66309 8.2798L11.6584 8.14287ZM11.6468 8.00733C11.5975 7.64822 11.4198 7.31911 11.1467 7.08087L9.83209 8.58815C9.74103 8.50874 9.68181 8.39904 9.66537 8.27933L11.6468 8.00733ZM11.1467 7.08087C10.8735 6.84262 10.5233 6.71135 10.1608 6.71133L10.1607 8.71133C10.0399 8.71133 9.92315 8.66757 9.83209 8.58815L11.1467 7.08087ZM10.1607 6.71133H9.76275V8.71133H10.1607V6.71133ZM10.7376 7.93431L10.9796 6.87631L9.02992 6.43036L8.78792 7.48836L10.7376 7.93431ZM10.0047 7.65333H10.4847V5.65333H10.0047V7.65333ZM10.5532 7.65099L10.6212 7.64632L10.4843 5.65101L10.4163 5.65568L10.5532 7.65099ZM10.6887 7.63937C11.0479 7.59008 11.377 7.41241 11.6152 7.13924L10.1079 5.82467C10.1873 5.73361 10.297 5.67439 10.4167 5.65796L10.6887 7.63937ZM11.6152 7.13924C11.8535 6.86606 11.9847 6.51585 11.9847 6.15337L9.98475 6.15329C9.98475 6.03247 10.0285 5.91573 10.1079 5.82467L11.6152 7.13924ZM11.9824 6.08419L11.9777 6.01686L9.98247 6.15514L9.98714 6.22247L11.9824 6.08419ZM11.971 5.95133C11.9221 5.59186 11.7446 5.26228 11.4714 5.02362L10.1557 6.5299C10.0646 6.45035 10.0055 6.34049 9.98919 6.22067L11.971 5.95133ZM11.4714 5.02362C11.1982 4.78497 10.8478 4.65341 10.485 4.65333L10.4845 6.65333C10.3636 6.6533 10.2468 6.60945 10.1557 6.5299L11.4714 5.02362ZM10.4847 4.65333H10.2341V6.65333H10.4847V4.65333ZM11.2085 5.87794L11.2952 5.50194L9.3463 5.05272L9.25963 5.42872L11.2085 5.87794ZM11.3082 5.43532L11.3189 5.36865L9.34397 5.05268L9.33331 5.11934L11.3082 5.43532ZM11.3274 5.29978C11.3598 4.93846 11.2601 4.57766 11.0468 4.28421L9.42895 5.46008C9.35785 5.36226 9.32462 5.24199 9.33539 5.12156L11.3274 5.29978ZM11.0468 4.28421C10.8335 3.99077 10.5211 3.78456 10.1674 3.70378L9.72206 5.65356C9.60418 5.62663 9.50004 5.55789 9.42895 5.46008L11.0468 4.28421ZM10.1027 3.69123L10.0361 3.68056L9.72009 5.65544L9.78675 5.66611L10.1027 3.69123ZM9.96719 3.67198C9.60587 3.63965 9.24508 3.73936 8.95163 3.95264L10.1275 5.57047C10.0297 5.64156 9.90941 5.6748 9.78897 5.66402L9.96719 3.67198ZM8.95163 3.95264C8.65819 4.16592 8.45198 4.47832 8.37119 4.83198L10.321 5.27735C10.294 5.39524 10.2253 5.49937 10.1275 5.57047L8.95163 3.95264ZM8.37164 4.83004L8.23364 5.42871L10.1825 5.87795L10.3205 5.27929L8.37164 4.83004ZM9.20808 4.65333H8.22941V6.65333H9.20808V4.65333ZM9.20048 5.89215L9.29115 5.52348L7.34902 5.04585L7.25835 5.41452L9.20048 5.89215ZM9.30426 5.46182L9.31626 5.39516L7.3479 5.04084L7.3359 5.10751L9.30426 5.46182ZM9.32613 5.32691C9.36769 4.94763 9.26315 4.56677 9.03379 4.26185L7.43548 5.46411C7.35903 5.36247 7.32418 5.23551 7.33803 5.10909L9.32613 5.32691ZM9.03379 4.26185C8.80443 3.95694 8.46749 3.75088 8.09156 3.68564L7.74955 5.65618C7.62424 5.63443 7.51193 5.56575 7.43548 5.46411L9.03379 4.26185ZM8.09156 3.68564C7.71563 3.62039 7.32897 3.70086 7.01027 3.91065L8.10998 5.58117C8.00375 5.65111 7.87486 5.67793 7.74955 5.65618L8.09156 3.68564ZM7.01027 3.91065C6.69158 4.12045 6.46481 4.44381 6.37613 4.81491L8.32136 5.27975C8.2918 5.40345 8.21621 5.51124 8.10998 5.58117L7.01027 3.91065ZM7.98475 7.654H8.97808V5.654H7.98475V7.654ZM8.00315 6.43147L7.76182 7.48881L9.71168 7.93386L9.95301 6.87652L8.00315 6.43147ZM8.73675 6.71133H7.72675V8.71133H8.73675V6.71133ZM8.69824 7.94839L8.95624 6.89105L7.01325 6.41694L6.75525 7.47428L8.69824 7.94839ZM4.33341 0.333332C3.62617 0.333332 2.94789 0.614284 2.4478 1.11438L3.86201 2.52859C3.98703 2.40357 4.1566 2.33333 4.33341 2.33333V0.333332ZM2.4478 1.11438C1.9477 1.61448 1.66675 2.29275 1.66675 3L3.66675 3C3.66675 2.82319 3.73699 2.65362 3.86201 2.52859L2.4478 1.11438ZM1.66675 3V13H3.66675V3H1.66675ZM1.66675 13C1.66675 13.7072 1.9477 14.3855 2.4478 14.8856L3.86201 13.4714C3.73699 13.3464 3.66675 13.1768 3.66675 13L1.66675 13ZM2.4478 14.8856C2.94789 15.3857 3.62617 15.6667 4.33341 15.6667V13.6667C4.1566 13.6667 3.98703 13.5964 3.86201 13.4714L2.4478 14.8856ZM4.33341 15.6667H13.1667V13.6667H4.33341V15.6667ZM13.1667 15.6667C13.5646 15.6667 13.9461 15.5086 14.2274 15.2273L12.8132 13.8131C12.907 13.7193 13.0341 13.6667 13.1667 13.6667V15.6667ZM14.2274 15.2273C14.5087 14.946 14.6667 14.5645 14.6667 14.1667H12.6667C12.6667 14.0341 12.7194 13.9069 12.8132 13.8131L14.2274 15.2273ZM14.6667 14.1667C14.6667 13.7688 14.5087 13.3873 14.2274 13.106L12.8132 14.5202C12.7194 14.4264 12.6667 14.2993 12.6667 14.1667H14.6667ZM14.2274 13.106C13.9461 12.8247 13.5646 12.6667 13.1667 12.6667V14.6667C13.0341 14.6667 12.907 14.614 12.8132 14.5202L14.2274 13.106ZM13.1667 12.6667H4.33341V14.6667H13.1667V12.6667ZM4.33341 12.6667C4.42182 12.6667 4.5066 12.7018 4.56912 12.7643L3.1549 14.1785C3.46747 14.4911 3.89139 14.6667 4.33341 14.6667V12.6667ZM4.56912 12.7643C4.63163 12.8268 4.66675 12.9116 4.66675 13H2.66675C2.66675 13.442 2.84234 13.866 3.1549 14.1785L4.56912 12.7643ZM3.66675 14H13.1667V12H3.66675V14ZM13.1667 14C13.5646 14 13.9461 13.842 14.2274 13.5607L12.8132 12.1464C12.907 12.0527 13.0341 12 13.1667 12V14ZM14.2274 13.5607C14.5087 13.2794 14.6667 12.8978 14.6667 12.5H12.6667C12.6667 12.3674 12.7194 12.2402 12.8132 12.1464L14.2274 13.5607ZM14.6667 12.5V3H12.6667V12.5H14.6667ZM14.6667 3C14.6667 2.64981 14.5978 2.30304 14.4638 1.97951L12.616 2.74488C12.6495 2.82576 12.6667 2.91245 12.6667 3L14.6667 3ZM14.4638 1.97951C14.3297 1.65598 14.1333 1.362 13.8857 1.11438L12.4715 2.52859C12.5334 2.5905 12.5825 2.66399 12.616 2.74488L14.4638 1.97951ZM13.8857 1.11438C13.6381 0.866758 13.3441 0.670333 13.0206 0.53632L12.2552 2.38408C12.3361 2.41758 12.4096 2.46669 12.4715 2.52859L13.8857 1.11438ZM13.0206 0.53632C12.697 0.402307 12.3503 0.333332 12.0001 0.333332V2.33333C12.0876 2.33333 12.1743 2.35058 12.2552 2.38408L13.0206 0.53632ZM12.0001 0.333332H4.33341V2.33333H12.0001V0.333332ZM12.6667 11H3.66675V13H12.6667V11ZM4.66675 12V3H2.66675V12H4.66675ZM4.66675 3C4.66675 3.0884 4.63163 3.17319 4.56912 3.2357L3.1549 1.82149C2.84234 2.13405 2.66675 2.55797 2.66675 3H4.66675ZM4.56912 3.2357C4.50661 3.29821 4.42182 3.33333 4.33341 3.33333L4.33341 1.33333C3.89139 1.33333 3.46746 1.50893 3.1549 1.82149L4.56912 3.2357ZM4.33341 3.33333H12.0001V1.33333H4.33341V3.33333ZM12.0001 3.33333C11.9117 3.33333 11.8269 3.29821 11.7644 3.2357L13.1786 1.82149C12.866 1.50893 12.4421 1.33333 12.0001 1.33333L12.0001 3.33333ZM11.7644 3.2357C11.7019 3.17319 11.6667 3.0884 11.6667 3H13.6667C13.6667 2.55797 13.4912 2.13405 13.1786 1.82149L11.7644 3.2357ZM11.6667 3V12H13.6667V3H11.6667Z" fill="#F97316" mask="url(#path-1-inside-1_80_58)"/>
</svg>
